<?xml version="1.0" encoding="utf-8"?>
<svg viewBox="324.9672 32.6594 301.0516 395.307" width="301.052px" height="395.307px" xmlns="http://www.w3.org/2000/svg">
  <defs>
    <clipPath id="clipPath18" clipPathUnits="userSpaceOnUse">
      <path id="path16" d="M 0,340 H 720 V 0 H 0 Z"/>
    </clipPath>
    <clipPath id="clipPath42" clipPathUnits="userSpaceOnUse">
      <path id="path40" d="m 318.858,118.789 h 20.179 V 77.8239 h -20.179 z"/>
    </clipPath>
    <clipPath id="clipPath62" clipPathUnits="userSpaceOnUse">
      <path id="path60" d="m 307.794,139.626 h 22.924 V 81.0177 h -22.924 z"/>
    </clipPath>
    <clipPath id="clipPath86" clipPathUnits="userSpaceOnUse">
      <path id="path84" d="m 370.672,205.504 h 27.141 v -27.369 h -27.141 z"/>
    </clipPath>
    <clipPath id="clipPath102" clipPathUnits="userSpaceOnUse">
      <path id="path100" d="m 315.984,195.64 h 31.98 v -22.77 h -31.98 z"/>
    </clipPath>
    <clipPath id="clipPath142" clipPathUnits="userSpaceOnUse">
      <path id="path140" d="m 256.526,150.617 h 40.056 V 93.1652 h -40.056 z"/>
    </clipPath>
    <clipPath id="clipPath158" clipPathUnits="userSpaceOnUse">
      <path id="path156" d="m 423.138,154.639 h 40.056 V 97.1868 h -40.056 z"/>
    </clipPath>
    <clipPath id="clipPath178" clipPathUnits="userSpaceOnUse">
      <path id="path176" d="m 376.441,86.8454 h 18.384 v -5.1707 h -18.384 z"/>
    </clipPath>
    <clipPath id="clipPath202" clipPathUnits="userSpaceOnUse">
      <path id="path200" d="m 302.327,184.514 h 22.981 v -17.211 h -22.981 z"/>
    </clipPath>
  </defs>
  <g transform="matrix(1.3333332538604736, 0, 0, -1.3333332538604736, 0, 453.33334350585943)" id="g10">
    <g id="g12">
      <g clip-path="url(#clipPath18)" id="g14">
        <g transform="translate(262.9746,108.7275)" id="g20">
          <path id="path22" style="fill:#e81c6f;fill-opacity:1;fill-rule:nonzero;stroke:none" d="m 0,0 v 21.425 c 55.779,-44.68 135.082,-44.708 190.903,0 V 0.049 c -1.384,-1.424 -2.048,-3.139 -2.376,-4.747 -0.659,-3.221 -1.161,-6.364 -1.746,-9.539 -0.63,-3.416 -1.247,-6.822 -1.944,-10.254 -0.194,-0.954 -0.583,-2.011 -0.978,-3.024 -1.974,-5.12 -6.341,-8.376 -8.82,-6.448 -0.864,0.666 -1.418,1.798 -2.049,2.799 -0.603,0.958 -1.024,2.128 -1.696,3.014 -1.383,1.822 -3.708,0.87 -5.755,-2.295 -0.825,-1.28 -1.497,-2.634 -2.23,-3.95 -0.712,-1.276 -1.349,-2.582 -2.132,-3.814 -1.817,-2.867 -4.325,-4.003 -6.037,-2.609 -0.921,0.748 -1.603,1.853 -2.177,2.985 -0.829,1.633 -1.441,3.452 -2.193,5.164 -0.289,0.652 -0.654,1.258 -1.073,1.802 -2.215,2.859 -6.929,1.778 -9.9,-2.353 -1.087,-1.52 -1.785,-3.289 -2.499,-4.964 -0.64,-1.499 -1.035,-3.036 -1.577,-4.548 -0.198,-0.55 -0.456,-1.106 -0.768,-1.626 -1.417,-2.382 -4.025,-3.037 -5.29,-1.216 -0.71,1.018 -1.104,2.309 -1.512,3.546 -0.576,1.755 -0.922,3.63 -1.566,5.351 -0.966,2.583 -2.153,3.001 -5.201,2.307 -4.621,-1.035 -7.548,-3.945 -8.318,-8.639 -0.634,-3.86 -0.29,-7.596 0.357,-11.264 1.07,-6.076 2.37,-12.071 3.315,-18.153 0.442,-2.846 0.522,-5.839 0.345,-8.803 -0.28,-4.672 -3.019,-7.687 -7.394,-8.323 -5.322,-0.757 -8.504,1.361 -9.574,6 -0.787,3.418 -0.624,6.896 -0.085,10.342 0.965,6.171 2.138,12.331 3.152,18.52 0.635,3.878 1.229,7.786 0.559,11.646 -0.196,1.131 -0.595,2.271 -1.161,3.269 -1.172,2.062 -4.028,3.076 -6.515,2.554 -1.508,-0.319 -2.394,-1.328 -2.744,-2.592 -0.589,-2.125 -0.98,-4.299 -1.381,-6.464 -0.415,-2.239 -0.688,-4.503 -1.135,-6.732 -0.164,-0.817 -0.548,-1.629 -1.013,-2.331 -1.594,-2.422 -5.05,-2.194 -6.265,0.55 -0.87,1.958 -1.245,4.125 -1.577,6.215 -0.504,3.182 -0.745,6.38 -1.174,9.57 -0.109,0.81 -0.426,1.638 -0.783,2.414 -1.162,2.523 -3.769,3.545 -5.974,2.231 -1.087,-0.651 -2.058,-1.637 -2.638,-2.728 -1.168,-2.198 -2.001,-4.588 -3.033,-6.85 -0.655,-1.433 -1.279,-2.908 -2.168,-4.165 -2.319,-3.291 -6.386,-2.823 -9.312,1.253 -1.466,2.034 -2.512,4.352 -3.566,6.601 -1.025,2.186 -1.805,4.433 -2.724,6.658 -0.382,0.926 -0.834,1.846 -1.282,2.764 -2.668,5.486 -6.142,7.545 -11.638,7.42 -2.619,-0.047 -3.688,-1.986 -4.137,-4.48 -0.582,-3.24 -0.199,-6.896 0.303,-10.588 0.617,-4.546 1.329,-9.116 1.885,-13.633 0.336,-2.73 0.436,-5.392 -0.255,-7.663 -0.833,-2.737 -2.789,-3.595 -5.908,-2.445 -0.83,0.307 -1.678,0.67 -2.5,1.162 -3.816,2.296 -5.789,5.55 -6.264,9.746 -0.393,3.494 0.029,6.472 0.523,9.408 0.786,4.671 1.776,9.214 2.39,14.019 0.287,2.249 0.182,4.855 -0.261,7.47 -0.901,5.283 -4.934,8.505 -8.416,10.229 -1.256,0.616 -2.013,0.064 -2.292,-0.976 -0.489,-1.824 -0.798,-3.81 -1.178,-5.728 -0.252,-1.269 -0.481,-2.559 -0.758,-3.804 -0.087,-0.389 -0.27,-0.7 -0.463,-0.981 -0.525,-0.768 -1.311,-0.974 -2.517,-0.176 -1.184,0.784 -2.068,2.08 -2.477,3.484 -0.643,2.207 -1.129,4.384 -1.584,6.536 C 3.241,-9.421 2.9,-7.084 2.375,-4.665 2.03,-3.065 1.383,-1.413 0,0"/>
        </g>
        <g transform="translate(462.6191,143.1484)" id="g24">
          <path id="path26" style="fill:#e81c6f;fill-opacity:1;fill-rule:nonzero;stroke:none" d="m 0,0 c 0,0 -19.534,21.832 -60.325,31.599 l -44.314,-1.507 -1.312,-96.723 c 1.609,0.073 9.022,0.47 19.487,2.013 l 3.158,28.424 60.325,-5.745 c -0.456,-1.153 -0.992,-2.249 -1.587,-3.298 12.478,6.894 23.752,15.991 31.463,28.002 z"/>
        </g>
        <g transform="translate(317.8394,171.875)" id="g28">
          <path id="path30" style="fill:#e81c6f;fill-opacity:1;fill-rule:nonzero;stroke:none" d="m 0,0 -14.938,3.447 -6.319,-8.618 -16.087,-6.894 -20.683,-10.341 -9.767,-9.193 -6.32,-7.468 c 0,0 20.158,-32.835 64.069,-48.588 l 2.392,5.893 c 0,0 18.768,30.084 20.531,49.513 0,0 -0.44,-38.696 -12.758,-58.608 0.299,-0.081 0.598,-0.164 0.899,-0.244 5.758,5.997 17.265,19.926 20.179,38.015 l -6.207,-40.965 c 3.512,-0.559 7.129,-1.009 10.863,-1.32 h 1.591 l 1.768,96.365 z"/>
        </g>
        <g transform="translate(318.8579,80.7744)" id="g32">
          <path id="path34" style="fill:#e81c6f;fill-opacity:1;fill-rule:nonzero;stroke:none" d="m 0,0 c 4.448,-1.181 9.105,-2.176 13.972,-2.95 l 6.207,40.965 C 17.265,19.926 5.758,5.997 0,0"/>
        </g>
        <g id="g36">
          <g id="g38"/>
          <g id="g50">
            <g style="opacity:0.30000299" id="g48" clip-path="url(#clipPath42)">
              <g id="g46" transform="translate(318.8579,80.7744)">
                <path id="path44" style="fill:#780e39;fill-opacity:1;fill-rule:nonzero;stroke:none" d="m 0,0 c 4.448,-1.181 9.105,-2.176 13.972,-2.95 l 6.207,40.965 C 17.265,19.926 5.758,5.997 0,0"/>
              </g>
            </g>
          </g>
        </g>
        <g transform="translate(330.7178,139.626)" id="g52">
          <path id="path54" style="fill:#e81c6f;fill-opacity:1;fill-rule:nonzero;stroke:none" d="m 0,0 c -1.763,-19.429 -20.531,-49.513 -20.531,-49.513 l -2.392,-5.893 c 3.256,-1.168 6.644,-2.242 10.164,-3.202 C -0.44,-38.696 0,0 0,0"/>
        </g>
        <g id="g56">
          <g id="g58"/>
          <g id="g70">
            <g style="opacity:0.30000299" id="g68" clip-path="url(#clipPath62)">
              <g id="g66" transform="translate(330.7178,139.626)">
                <path id="path64" style="fill:#780e39;fill-opacity:1;fill-rule:nonzero;stroke:none" d="m 0,0 c -1.763,-19.429 -20.531,-49.513 -20.531,-49.513 l -2.392,-5.893 c 3.256,-1.168 6.644,-2.242 10.164,-3.202 C -0.44,-38.696 0,0 0,0"/>
              </g>
            </g>
          </g>
        </g>
        <g transform="translate(379.3135,106.9541)" id="g72">
          <path id="path74" style="fill:#ed4288;fill-opacity:1;fill-rule:nonzero;stroke:none" d="m 0,0 -3.158,-28.424 c 16.636,2.454 40.962,7.814 61.895,19.381 0.596,1.05 1.131,2.146 1.587,3.298 z"/>
        </g>
        <g transform="translate(343.1182,167.8535)" id="g76">
          <path id="path78" style="fill:#cf1963;fill-opacity:1;fill-rule:nonzero;stroke:none" d="M 0,0 C 0,0 -7.469,3.447 -10.341,2.872 -13.214,2.298 -20.683,1.149 -20.683,1.149 l -11.49,0.574 -8.044,5.745 c 0,0 -3.447,27.003 -1.723,32.174 0,0 -6.32,36.195 0.574,62.048 0,0 2.299,41.94 50.558,45.962 0,0 29.301,0 43.089,-27.577 0,0 15.513,-30.45 11.491,-54.005 L 61.474,38.493 63.197,26.428 c 0,0 0,-5.745 -0.574,-7.469 C 62.049,17.235 56.878,11.49 56.878,11.49 L 59.176,6.894 45.962,2.298 18.385,0 Z"/>
        </g>
        <g id="g80">
          <g id="g82"/>
          <g id="g94">
            <g style="opacity:0.5" id="g92" clip-path="url(#clipPath86)">
              <g id="g90" transform="translate(370.6719,178.2495)">
                <path id="path88" style="fill:#780e39;fill-opacity:1;fill-rule:nonzero;stroke:none" d="M 0,0 C 0,0 16.518,4.957 27.092,27.254 27.464,19.264 26.41,-1.849 0,0"/>
              </g>
            </g>
          </g>
        </g>
        <g id="g96">
          <g id="g98"/>
          <g id="g110">
            <g style="opacity:0.5" id="g108" clip-path="url(#clipPath102)">
              <g id="g106" transform="translate(347.9639,174.332)">
                <path id="path104" style="fill:#780e39;fill-opacity:1;fill-rule:nonzero;stroke:none" d="M 0,0 C 0,0 -17.174,1.565 -31.98,21.309 -30.752,13.404 -25.512,-7.075 0,0"/>
              </g>
            </g>
          </g>
        </g>
        <g transform="translate(338.522,179.918)" id="g112">
          <path id="path114" style="fill:#5c0b2c;fill-opacity:1;fill-rule:nonzero;stroke:none" d="m 0,0 c 0,0 -25.854,7.469 -27.002,27.003 0,0 -13.789,66.644 6.319,84.455 0,0 7.469,16.086 27.003,18.384 0,0 22.98,5.746 39.641,-13.214 0,0 21.832,-36.769 17.237,-57.452 0,0 -6.895,-38.493 -16.661,-48.26 L 34.471,5.171 29.3,0.575 C 29.3,0.575 5.171,-5.17 0,0"/>
        </g>
        <g transform="translate(384.8975,291.6279)" id="g116">
          <path id="path118" style="fill:#0a0a0a;fill-opacity:1;fill-rule:nonzero;stroke:none" d="m 0,0 c -1.937,2.308 -14.991,14.661 -32.119,14.787 v 0.002 c -0.027,0 -0.053,-10e-4 -0.079,-10e-4 -0.027,0 -0.052,10e-4 -0.079,10e-4 V 14.787 C -49.405,14.661 -62.458,2.308 -64.396,0 c -12.902,-15.366 -13.347,-36.787 -12.756,-42.248 1.356,-12.521 4.889,-29.24 12.563,-41.84 8.216,-13.491 20.879,-22.451 31.31,-22.451 0.359,0 0.719,0.017 1.081,0.041 0.362,-0.024 0.722,-0.041 1.081,-0.041 10.431,0 23.094,8.96 31.309,22.451 7.674,12.6 11.208,29.319 12.564,41.84 C 13.347,-36.787 12.902,-15.366 0,0"/>
        </g>
        <g transform="translate(306.3931,252.0332)" id="g120">
          <path id="path122" style="fill:#3d3d3d;fill-opacity:1;fill-rule:nonzero;stroke:none" d="M 0,0 C 0,0 69.191,-4.286 91.417,0.408 L 91.031,-4.49 c 0,0 -57.788,-3.878 -89.871,-0.408 C 1.16,-4.898 0,-2.653 0,0"/>
        </g>
        <g transform="translate(348.1396,245.7061)" id="g124">
          <path id="path126" style="fill:#292929;fill-opacity:1;fill-rule:nonzero;stroke:none" d="m 0,0 0.387,-60.209 4.173,-0.367 4.137,0.163 1.16,60.617 z"/>
        </g>
        <g transform="translate(351.6187,185.0889)" id="g128">
          <path id="path130" style="fill:#141414;fill-opacity:1;fill-rule:nonzero;stroke:none" d="M 0,0 -0.193,60.413 2.513,60.617 2.162,0 Z"/>
        </g>
        <g transform="translate(371.2695,262.0181)" id="g132">
          <path id="path134" style="fill:#ffffff;fill-opacity:1;fill-rule:nonzero;stroke:none" d="m 0,0 c -10.528,1.917 -36.667,0 -36.667,0 l 0.363,31.82 C -26.865,37.379 0,32.204 0,32.204 Z m 4.356,33.929 c 0,0 -23.234,7.859 -45.379,-0.192 l -1.271,-39.871 c 0,0 31.766,3.834 46.832,-0.192 z"/>
        </g>
        <g id="g136">
          <g id="g138"/>
          <g id="g150">
            <g style="opacity:0.30000299" id="g148" clip-path="url(#clipPath142)">
              <g id="g146" transform="translate(267.2812,144.8721)">
                <path id="path144" style="fill:#780e39;fill-opacity:1;fill-rule:nonzero;stroke:none" d="m 0,0 c 2.598,1.227 10.916,5.745 10.916,5.745 l 2.873,-8.617 c 0,0 5.745,-41.366 15.512,-48.835 0,0 -14.363,1.149 -22.407,41.94 L 6.32,-24.13 l -5.171,12.066 -6.32,-8.619 c 0,0 -15.512,10.916 5.171,20.683"/>
              </g>
            </g>
          </g>
        </g>
        <g id="g152">
          <g id="g154"/>
          <g id="g166">
            <g style="opacity:0.30000299" id="g164" clip-path="url(#clipPath158)">
              <g id="g162" transform="translate(452.4385,148.8936)">
                <path id="path160" style="fill:#780e39;fill-opacity:1;fill-rule:nonzero;stroke:none" d="m 0,0 c -2.598,1.227 -10.916,5.745 -10.916,5.745 l -2.873,-8.617 c 0,0 -5.745,-41.366 -15.512,-48.835 0,0 14.363,1.149 22.406,41.94 l 0.576,-14.363 5.17,12.066 6.32,-8.619 c 0,0 15.512,10.916 -5.171,20.683"/>
              </g>
            </g>
          </g>
        </g>
        <g transform="translate(402.2939,88.8564)" id="g168">
          <path id="path170" style="fill:#ed72a4;fill-opacity:1;fill-rule:nonzero;stroke:none" d="m 0,0 c 0,-1.745 -1.415,-3.16 -3.16,-3.16 -1.745,0 -3.159,1.415 -3.159,3.16 0,1.745 1.414,3.16 3.159,3.16 C -1.415,3.16 0,1.745 0,0"/>
        </g>
        <g id="g172">
          <g id="g174"/>
          <g id="g186">
            <g style="opacity:0.30000299" id="g184" clip-path="url(#clipPath178)">
              <g id="g182" transform="translate(377.0146,86.8457)">
                <path id="path180" style="fill:#780e39;fill-opacity:1;fill-rule:nonzero;stroke:none" d="M 0,0 17.811,-5.171 -0.574,-4.597 Z"/>
              </g>
            </g>
          </g>
        </g>
        <g transform="translate(358.0557,178.769)" id="g188">
          <path id="path190" style="fill:#0a0a0a;fill-opacity:1;fill-rule:nonzero;stroke:none" d="M 0,0 -10.916,-1.149 -11.003,-5.9 -0.075,-5.529 Z"/>
        </g>
        <g transform="translate(347.0527,172.8687)" id="g192">
          <path id="path194" style="fill:#0a0a0a;fill-opacity:1;fill-rule:nonzero;stroke:none" d="M 0,0 -1.768,-96.365 H 9.279 c 0,0 0.12,0.005 0.336,0.014 l 1.313,96.723 z"/>
        </g>
        <g id="g196">
          <g id="g198"/>
          <g id="g210">
            <g style="opacity:0.5" id="g208" clip-path="url(#clipPath202)">
              <g id="g206" transform="translate(302.3271,184.5142)">
                <path id="path204" style="fill:#780e39;fill-opacity:1;fill-rule:nonzero;stroke:none" d="M 0,0 22.981,-16.086 C 22.981,-16.086 4.596,-23.555 0,0"/>
              </g>
            </g>
          </g>
        </g>
      </g>
    </g>
  </g>
</svg>